<svg width="572" height="33" viewBox="0 0 572 33" fill="none" xmlns="http://www.w3.org/2000/svg">
<path d="M0.96 25.2537L9.216 2.85366H12.064L20.288 25.2537H17.44L15.392 19.4937H5.856L3.776 25.2537H0.96ZM6.656 17.3177H14.592L10.624 6.24566L6.656 17.3177ZM31.7668 5.86166C31.2548 5.86166 30.8174 5.69099 30.4548 5.34966C30.0921 4.98699 29.9107 4.53899 29.9107 4.00566C29.9107 3.49366 30.0921 3.06699 30.4548 2.72566C30.8174 2.38433 31.2548 2.21366 31.7668 2.21366C32.2788 2.21366 32.7054 2.38433 33.0468 2.72566C33.4094 3.06699 33.5908 3.49366 33.5908 4.00566C33.5908 4.53899 33.4094 4.98699 33.0468 5.34966C32.7054 5.69099 32.2788 5.86166 31.7668 5.86166ZM26.9027 32.2937V29.9897H28.1507C28.9401 29.9897 29.5054 29.819 29.8468 29.4777C30.2094 29.1577 30.3907 28.603 30.3907 27.8137V9.38166H33.0788V27.8777C33.0788 29.4137 32.6948 30.5337 31.9268 31.2377C31.1588 31.9417 30.0387 32.2937 28.5667 32.2937H26.9027ZM42.5887 25.6377C40.7114 25.6377 39.2181 25.0723 38.1087 23.9417C36.9994 22.7897 36.4447 21.0297 36.4447 18.6617V9.38166H39.1327V18.3737C39.1327 21.6803 40.4874 23.3337 43.1967 23.3337C44.5834 23.3337 45.7247 22.843 46.6207 21.8617C47.5381 20.859 47.9967 19.4403 47.9967 17.6057V9.38166H50.6847V25.2537H48.2527L48.0608 22.4057C47.5701 23.4083 46.8341 24.1977 45.8527 24.7737C44.8927 25.3497 43.8047 25.6377 42.5887 25.6377ZM54.1493 25.2537V9.38166H56.5813L56.7413 12.2297C57.2533 11.227 57.9893 10.4377 58.9493 9.86166C59.9092 9.28566 60.9972 8.99766 62.2133 8.99766C64.0906 8.99766 65.5839 9.57366 66.6933 10.7257C67.8239 11.8563 68.3892 13.6057 68.3892 15.9737V25.2537H65.7013V16.2617C65.7013 12.955 64.3359 11.3017 61.6053 11.3017C60.2399 11.3017 59.0986 11.803 58.1813 12.8057C57.2853 13.787 56.8373 15.195 56.8373 17.0297V25.2537H54.1493ZM73.1337 5.86166C72.6004 5.86166 72.1524 5.69099 71.7897 5.34966C71.4484 4.98699 71.2777 4.53899 71.2777 4.00566C71.2777 3.49366 71.4484 3.06699 71.7897 2.72566C72.1524 2.38433 72.6004 2.21366 73.1337 2.21366C73.6457 2.21366 74.0831 2.38433 74.4457 2.72566C74.8084 3.06699 74.9897 3.49366 74.9897 4.00566C74.9897 4.53899 74.8084 4.98699 74.4457 5.34966C74.0831 5.69099 73.6457 5.86166 73.1337 5.86166ZM71.7897 25.2537V9.38166H74.4777V25.2537H71.7897ZM85.43 25.6377C83.9367 25.6377 82.5927 25.2963 81.398 24.6137C80.2033 23.931 79.254 22.971 78.55 21.7337C77.8673 20.475 77.526 19.003 77.526 17.3177C77.526 15.6323 77.878 14.171 78.582 12.9337C79.286 11.675 80.2353 10.7043 81.43 10.0217C82.646 9.33899 84.0007 8.99766 85.494 8.99766C86.9873 8.99766 88.3313 9.33899 89.526 10.0217C90.7207 10.7043 91.6593 11.675 92.342 12.9337C93.046 14.171 93.398 15.6323 93.398 17.3177C93.398 19.003 93.046 20.475 92.342 21.7337C91.638 22.971 90.678 23.931 89.462 24.6137C88.2673 25.2963 86.9233 25.6377 85.43 25.6377ZM85.43 23.3337C86.3473 23.3337 87.2007 23.1097 87.99 22.6617C88.7793 22.2137 89.4193 21.5417 89.91 20.6457C90.4007 19.7497 90.646 18.6403 90.646 17.3177C90.646 15.995 90.4007 14.8857 89.91 13.9897C89.4407 13.0937 88.8113 12.4217 88.022 11.9737C87.2327 11.5257 86.39 11.3017 85.494 11.3017C84.5767 11.3017 83.7233 11.5257 82.934 11.9737C82.1447 12.4217 81.5047 13.0937 81.014 13.9897C80.5233 14.8857 80.278 15.995 80.278 17.3177C80.278 18.6403 80.5233 19.7497 81.014 20.6457C81.5047 21.5417 82.134 22.2137 82.902 22.6617C83.6913 23.1097 84.534 23.3337 85.43 23.3337ZM96.1755 25.2537V9.38166H98.6075L98.8315 12.4217C99.3222 11.3763 100.069 10.5443 101.071 9.92566C102.074 9.30699 103.311 8.99766 104.783 8.99766V11.8137H104.047C103.109 11.8137 102.245 11.9843 101.455 12.3257C100.666 12.6457 100.037 13.2003 99.5675 13.9897C99.0982 14.779 98.8635 15.867 98.8635 17.2537V25.2537H96.1755ZM119.501 25.6377C117.475 25.6377 115.885 25.0723 114.733 23.9417C113.581 22.811 113.005 21.243 113.005 19.2377H115.725C115.725 20.3683 116.003 21.3177 116.557 22.0857C117.112 22.8537 118.083 23.2377 119.469 23.2377C120.813 23.2377 121.741 22.8643 122.253 22.1177C122.787 21.371 123.053 20.443 123.053 19.3337V2.85366H125.741V19.3337C125.741 21.3177 125.187 22.8643 124.077 23.9737C122.989 25.083 121.464 25.6377 119.501 25.6377ZM134.638 25.6377C133.315 25.6377 132.217 25.4137 131.342 24.9657C130.467 24.5177 129.817 23.9203 129.39 23.1737C128.963 22.427 128.75 21.6163 128.75 20.7417C128.75 19.1203 129.369 17.8723 130.606 16.9977C131.843 16.123 133.529 15.6857 135.662 15.6857H139.95V15.4937C139.95 14.107 139.587 13.0617 138.862 12.3577C138.137 11.6323 137.166 11.2697 135.95 11.2697C134.905 11.2697 133.998 11.5363 133.23 12.0697C132.483 12.5817 132.014 13.339 131.822 14.3417H129.07C129.177 13.1897 129.561 12.219 130.222 11.4297C130.905 10.6403 131.747 10.043 132.75 9.63766C133.753 9.21099 134.819 8.99766 135.95 8.99766C138.169 8.99766 139.833 9.59499 140.942 10.7897C142.073 11.963 142.638 13.531 142.638 15.4937V25.2537H140.238L140.078 22.4057C139.63 23.3017 138.969 24.0697 138.094 24.7097C137.241 25.3283 136.089 25.6377 134.638 25.6377ZM135.054 23.3657C136.078 23.3657 136.953 23.099 137.678 22.5657C138.425 22.0323 138.99 21.339 139.374 20.4857C139.758 19.6323 139.95 18.7363 139.95 17.7977V17.7657H135.886C134.307 17.7657 133.187 18.043 132.526 18.5977C131.886 19.131 131.566 19.803 131.566 20.6137C131.566 21.4457 131.865 22.1177 132.462 22.6297C133.081 23.1203 133.945 23.3657 135.054 23.3657ZM149.693 25.2537L143.677 9.38166H146.493L151.261 22.6617L156.061 9.38166H158.813L152.797 25.2537H149.693ZM165.312 25.6377C163.989 25.6377 162.89 25.4137 162.016 24.9657C161.141 24.5177 160.49 23.9203 160.064 23.1737C159.637 22.427 159.424 21.6163 159.424 20.7417C159.424 19.1203 160.042 17.8723 161.28 16.9977C162.517 16.123 164.202 15.6857 166.336 15.6857H170.624V15.4937C170.624 14.107 170.261 13.0617 169.536 12.3577C168.81 11.6323 167.84 11.2697 166.624 11.2697C165.578 11.2697 164.672 11.5363 163.904 12.0697C163.157 12.5817 162.688 13.339 162.496 14.3417H159.744C159.85 13.1897 160.234 12.219 160.896 11.4297C161.578 10.6403 162.421 10.043 163.424 9.63766C164.426 9.21099 165.493 8.99766 166.624 8.99766C168.842 8.99766 170.506 9.59499 171.616 10.7897C172.746 11.963 173.312 13.531 173.312 15.4937V25.2537H170.912L170.752 22.4057C170.304 23.3017 169.642 24.0697 168.768 24.7097C167.914 25.3283 166.762 25.6377 165.312 25.6377ZM165.728 23.3657C166.752 23.3657 167.626 23.099 168.352 22.5657C169.098 22.0323 169.664 21.339 170.048 20.4857C170.432 19.6323 170.624 18.7363 170.624 17.7977V17.7657H166.56C164.981 17.7657 163.861 18.043 163.2 18.5977C162.56 19.131 162.24 19.803 162.24 20.6137C162.24 21.4457 162.538 22.1177 163.136 22.6297C163.754 23.1203 164.618 23.3657 165.728 23.3657ZM183.68 25.6377C182.038 25.6377 180.608 25.339 179.392 24.7417C178.176 24.1443 177.238 23.3123 176.576 22.2457C175.915 21.179 175.584 19.9417 175.584 18.5337H178.4C178.4 19.4083 178.603 20.219 179.008 20.9657C179.414 21.691 180 22.2777 180.768 22.7257C181.558 23.1523 182.528 23.3657 183.68 23.3657C185.195 23.3657 186.368 23.003 187.2 22.2777C188.032 21.5523 188.448 20.6457 188.448 19.5577C188.448 18.6617 188.256 17.947 187.872 17.4137C187.488 16.859 186.966 16.411 186.304 16.0697C185.664 15.7283 184.918 15.4297 184.064 15.1737C183.232 14.9177 182.358 14.6297 181.44 14.3097C179.712 13.7123 178.432 12.9763 177.6 12.1017C176.768 11.2057 176.352 10.043 176.352 8.61366C176.331 7.41899 176.608 6.36299 177.184 5.44566C177.76 4.50699 178.571 3.78166 179.616 3.26966C180.683 2.73633 181.942 2.46966 183.392 2.46966C184.822 2.46966 186.059 2.73633 187.104 3.26966C188.171 3.80299 188.992 4.53899 189.568 5.47766C190.166 6.41633 190.475 7.483 190.496 8.67766H187.68C187.68 8.05899 187.52 7.45099 187.2 6.85366C186.88 6.23499 186.39 5.73366 185.728 5.34966C185.088 4.96566 184.278 4.77366 183.296 4.77366C182.08 4.75233 181.078 5.06166 180.288 5.70166C179.52 6.34166 179.136 7.22699 179.136 8.35766C179.136 9.31766 179.403 10.0537 179.936 10.5657C180.491 11.0777 181.259 11.5043 182.24 11.8457C183.222 12.1657 184.352 12.539 185.632 12.9657C186.699 13.3497 187.659 13.7977 188.512 14.3097C189.366 14.8217 190.027 15.483 190.496 16.2937C190.987 17.1043 191.232 18.139 191.232 19.3977C191.232 20.4643 190.955 21.4777 190.4 22.4377C189.846 23.3763 189.003 24.1443 187.872 24.7417C186.763 25.339 185.366 25.6377 183.68 25.6377ZM201.22 25.6377C199.706 25.6377 198.34 25.2963 197.124 24.6137C195.93 23.9097 194.98 22.939 194.276 21.7017C193.594 20.443 193.252 18.9817 193.252 17.3177C193.252 15.6537 193.594 14.203 194.276 12.9657C194.98 11.707 195.93 10.7363 197.124 10.0537C198.34 9.34966 199.706 8.99766 201.22 8.99766C203.098 8.99766 204.676 9.48833 205.956 10.4697C207.258 11.451 208.079 12.763 208.42 14.4057H205.668C205.455 13.4243 204.932 12.667 204.1 12.1337C203.268 11.579 202.298 11.3017 201.188 11.3017C200.292 11.3017 199.45 11.5257 198.66 11.9737C197.871 12.4217 197.231 13.0937 196.74 13.9897C196.25 14.8857 196.004 15.995 196.004 17.3177C196.004 18.6403 196.25 19.7497 196.74 20.6457C197.231 21.5417 197.871 22.2243 198.66 22.6937C199.45 23.1417 200.292 23.3657 201.188 23.3657C202.298 23.3657 203.268 23.099 204.1 22.5657C204.932 22.011 205.455 21.2323 205.668 20.2297H208.42C208.1 21.8297 207.29 23.131 205.988 24.1337C204.687 25.1363 203.098 25.6377 201.22 25.6377ZM211.214 25.2537V9.38166H213.646L213.87 12.4217C214.361 11.3763 215.108 10.5443 216.11 9.92566C217.113 9.30699 218.35 8.99766 219.822 8.99766V11.8137H219.086C218.148 11.8137 217.284 11.9843 216.494 12.3257C215.705 12.6457 215.076 13.2003 214.606 13.9897C214.137 14.779 213.902 15.867 213.902 17.2537V25.2537H211.214ZM223.511 5.86166C222.978 5.86166 222.53 5.69099 222.167 5.34966C221.826 4.98699 221.655 4.53899 221.655 4.00566C221.655 3.49366 221.826 3.06699 222.167 2.72566C222.53 2.38433 222.978 2.21366 223.511 2.21366C224.023 2.21366 224.461 2.38433 224.823 2.72566C225.186 3.06699 225.367 3.49366 225.367 4.00566C225.367 4.53899 225.186 4.98699 224.823 5.34966C224.461 5.69099 224.023 5.86166 223.511 5.86166ZM222.167 25.2537V9.38166H224.855V25.2537H222.167ZM228.576 32.2937V9.38166H231.008L231.264 12.0057C231.776 11.2377 232.501 10.5443 233.44 9.92566C234.4 9.30699 235.616 8.99766 237.088 8.99766C238.666 8.99766 240.042 9.36033 241.216 10.0857C242.389 10.811 243.296 11.803 243.936 13.0617C244.597 14.3203 244.928 15.7497 244.928 17.3497C244.928 18.9497 244.597 20.379 243.936 21.6377C243.296 22.875 242.378 23.8563 241.184 24.5817C240.01 25.2857 238.634 25.6377 237.056 25.6377C235.754 25.6377 234.592 25.371 233.568 24.8377C232.565 24.3043 231.797 23.5577 231.264 22.5977V32.2937H228.576ZM236.768 23.3017C237.834 23.3017 238.773 23.0563 239.584 22.5657C240.394 22.0537 241.034 21.3497 241.504 20.4537C241.973 19.5577 242.208 18.5123 242.208 17.3177C242.208 16.123 241.973 15.0777 241.504 14.1817C241.034 13.2857 240.394 12.5923 239.584 12.1017C238.773 11.5897 237.834 11.3337 236.768 11.3337C235.701 11.3337 234.762 11.5897 233.952 12.1017C233.141 12.5923 232.501 13.2857 232.032 14.1817C231.562 15.0777 231.328 16.123 231.328 17.3177C231.328 18.5123 231.562 19.5577 232.032 20.4537C232.501 21.3497 233.141 22.0537 233.952 22.5657C234.762 23.0563 235.701 23.3017 236.768 23.3017ZM253.356 25.2537C251.906 25.2537 250.764 24.9017 249.932 24.1977C249.1 23.4937 248.684 22.2243 248.684 20.3897V11.6537H245.932V9.38166H248.684L249.036 5.57366H251.372V9.38166H256.044V11.6537H251.372V20.3897C251.372 21.3923 251.575 22.075 251.98 22.4377C252.386 22.779 253.1 22.9497 254.124 22.9497H255.788V25.2537H253.356ZM257.187 28.2937L265.219 0.80566H267.875L259.843 28.2937H257.187ZM276.072 25.2537V5.06166H269.384V2.85366H285.448V5.06166H278.76V25.2537H276.072ZM287.745 32.2937L291.681 23.7177H290.753L284.449 9.38166H287.361L292.609 21.7337L298.177 9.38166H300.961L290.561 32.2937H287.745ZM302.838 32.2937V9.38166H305.27L305.526 12.0057C306.038 11.2377 306.763 10.5443 307.702 9.92566C308.662 9.30699 309.878 8.99766 311.35 8.99766C312.929 8.99766 314.305 9.36033 315.478 10.0857C316.651 10.811 317.558 11.803 318.198 13.0617C318.859 14.3203 319.19 15.7497 319.19 17.3497C319.19 18.9497 318.859 20.379 318.198 21.6377C317.558 22.875 316.641 23.8563 315.446 24.5817C314.273 25.2857 312.897 25.6377 311.318 25.6377C310.017 25.6377 308.854 25.371 307.83 24.8377C306.827 24.3043 306.059 23.5577 305.526 22.5977V32.2937H302.838ZM311.03 23.3017C312.097 23.3017 313.035 23.0563 313.846 22.5657C314.657 22.0537 315.297 21.3497 315.766 20.4537C316.235 19.5577 316.47 18.5123 316.47 17.3177C316.47 16.123 316.235 15.0777 315.766 14.1817C315.297 13.2857 314.657 12.5923 313.846 12.1017C313.035 11.5897 312.097 11.3337 311.03 11.3337C309.963 11.3337 309.025 11.5897 308.214 12.1017C307.403 12.5923 306.763 13.2857 306.294 14.1817C305.825 15.0777 305.59 16.123 305.59 17.3177C305.59 18.5123 305.825 19.5577 306.294 20.4537C306.763 21.3497 307.403 22.0537 308.214 22.5657C309.025 23.0563 309.963 23.3017 311.03 23.3017ZM329.108 25.6377C327.593 25.6377 326.249 25.2963 325.076 24.6137C323.902 23.9097 322.974 22.939 322.292 21.7017C321.63 20.4643 321.3 19.003 321.3 17.3177C321.3 15.6537 321.63 14.203 322.292 12.9657C322.953 11.707 323.87 10.7363 325.044 10.0537C326.238 9.34966 327.614 8.99766 329.172 8.99766C330.708 8.99766 332.03 9.34966 333.14 10.0537C334.27 10.7363 335.134 11.643 335.732 12.7737C336.329 13.9043 336.628 15.1203 336.628 16.4217C336.628 16.6563 336.617 16.891 336.596 17.1257C336.596 17.3603 336.596 17.627 336.596 17.9257H323.956C324.02 19.1417 324.297 20.155 324.788 20.9657C325.3 21.755 325.929 22.3523 326.676 22.7577C327.444 23.163 328.254 23.3657 329.108 23.3657C330.217 23.3657 331.145 23.1097 331.892 22.5977C332.638 22.0857 333.182 21.3923 333.524 20.5177H336.18C335.753 21.9897 334.932 23.2163 333.716 24.1977C332.521 25.1577 330.985 25.6377 329.108 25.6377ZM329.108 11.2697C327.828 11.2697 326.686 11.6643 325.684 12.4537C324.702 13.2217 324.137 14.3523 323.988 15.8457H333.972C333.908 14.4163 333.417 13.2963 332.5 12.4857C331.582 11.675 330.452 11.2697 329.108 11.2697ZM346.526 25.6377C344.884 25.6377 343.454 25.339 342.238 24.7417C341.022 24.1443 340.084 23.3123 339.422 22.2457C338.761 21.179 338.43 19.9417 338.43 18.5337H341.246C341.246 19.4083 341.449 20.219 341.854 20.9657C342.26 21.691 342.846 22.2777 343.614 22.7257C344.404 23.1523 345.374 23.3657 346.526 23.3657C348.041 23.3657 349.214 23.003 350.046 22.2777C350.878 21.5523 351.294 20.6457 351.294 19.5577C351.294 18.6617 351.102 17.947 350.718 17.4137C350.334 16.859 349.812 16.411 349.15 16.0697C348.51 15.7283 347.764 15.4297 346.91 15.1737C346.078 14.9177 345.204 14.6297 344.286 14.3097C342.558 13.7123 341.278 12.9763 340.446 12.1017C339.614 11.2057 339.198 10.043 339.198 8.61366C339.177 7.41899 339.454 6.36299 340.03 5.44566C340.606 4.50699 341.417 3.78166 342.462 3.26966C343.529 2.73633 344.788 2.46966 346.238 2.46966C347.668 2.46966 348.905 2.73633 349.95 3.26966C351.017 3.80299 351.838 4.53899 352.414 5.47766C353.012 6.41633 353.321 7.483 353.342 8.67766H350.526C350.526 8.05899 350.366 7.45099 350.046 6.85366C349.726 6.23499 349.236 5.73366 348.574 5.34966C347.934 4.96566 347.124 4.77366 346.142 4.77366C344.926 4.75233 343.924 5.06166 343.134 5.70166C342.366 6.34166 341.982 7.22699 341.982 8.35766C341.982 9.31766 342.249 10.0537 342.782 10.5657C343.337 11.0777 344.105 11.5043 345.086 11.8457C346.068 12.1657 347.198 12.539 348.478 12.9657C349.545 13.3497 350.505 13.7977 351.358 14.3097C352.212 14.8217 352.873 15.483 353.342 16.2937C353.833 17.1043 354.078 18.139 354.078 19.3977C354.078 20.4643 353.801 21.4777 353.246 22.4377C352.692 23.3763 351.849 24.1443 350.718 24.7417C349.609 25.339 348.212 25.6377 346.526 25.6377ZM364.067 25.6377C362.552 25.6377 361.187 25.2963 359.971 24.6137C358.776 23.9097 357.827 22.939 357.123 21.7017C356.44 20.443 356.099 18.9817 356.099 17.3177C356.099 15.6537 356.44 14.203 357.123 12.9657C357.827 11.707 358.776 10.7363 359.971 10.0537C361.187 9.34966 362.552 8.99766 364.067 8.99766C365.944 8.99766 367.523 9.48833 368.803 10.4697C370.104 11.451 370.925 12.763 371.267 14.4057H368.515C368.301 13.4243 367.779 12.667 366.947 12.1337C366.115 11.579 365.144 11.3017 364.035 11.3017C363.139 11.3017 362.296 11.5257 361.507 11.9737C360.717 12.4217 360.077 13.0937 359.587 13.9897C359.096 14.8857 358.851 15.995 358.851 17.3177C358.851 18.6403 359.096 19.7497 359.587 20.6457C360.077 21.5417 360.717 22.2243 361.507 22.6937C362.296 23.1417 363.139 23.3657 364.035 23.3657C365.144 23.3657 366.115 23.099 366.947 22.5657C367.779 22.011 368.301 21.2323 368.515 20.2297H371.267C370.947 21.8297 370.136 23.131 368.835 24.1337C367.533 25.1363 365.944 25.6377 364.067 25.6377ZM374.061 25.2537V9.38166H376.493L376.717 12.4217C377.207 11.3763 377.954 10.5443 378.957 9.92566C379.959 9.30699 381.197 8.99766 382.669 8.99766V11.8137H381.933C380.994 11.8137 380.13 11.9843 379.341 12.3257C378.551 12.6457 377.922 13.2003 377.453 13.9897C376.983 14.779 376.749 15.867 376.749 17.2537V25.2537H374.061ZM386.357 5.86166C385.824 5.86166 385.376 5.69099 385.013 5.34966C384.672 4.98699 384.501 4.53899 384.501 4.00566C384.501 3.49366 384.672 3.06699 385.013 2.72566C385.376 2.38433 385.824 2.21366 386.357 2.21366C386.869 2.21366 387.307 2.38433 387.669 2.72566C388.032 3.06699 388.213 3.49366 388.213 4.00566C388.213 4.53899 388.032 4.98699 387.669 5.34966C387.307 5.69099 386.869 5.86166 386.357 5.86166ZM385.013 25.2537V9.38166H387.701V25.2537H385.013ZM391.422 32.2937V9.38166H393.854L394.11 12.0057C394.622 11.2377 395.347 10.5443 396.286 9.92566C397.246 9.30699 398.462 8.99766 399.934 8.99766C401.512 8.99766 402.888 9.36033 404.062 10.0857C405.235 10.811 406.142 11.803 406.782 13.0617C407.443 14.3203 407.774 15.7497 407.774 17.3497C407.774 18.9497 407.443 20.379 406.782 21.6377C406.142 22.875 405.224 23.8563 404.03 24.5817C402.856 25.2857 401.48 25.6377 399.902 25.6377C398.6 25.6377 397.438 25.371 396.414 24.8377C395.411 24.3043 394.643 23.5577 394.11 22.5977V32.2937H391.422ZM399.614 23.3017C400.68 23.3017 401.619 23.0563 402.43 22.5657C403.24 22.0537 403.88 21.3497 404.35 20.4537C404.819 19.5577 405.054 18.5123 405.054 17.3177C405.054 16.123 404.819 15.0777 404.35 14.1817C403.88 13.2857 403.24 12.5923 402.43 12.1017C401.619 11.5897 400.68 11.3337 399.614 11.3337C398.547 11.3337 397.608 11.5897 396.798 12.1017C395.987 12.5923 395.347 13.2857 394.878 14.1817C394.408 15.0777 394.174 16.123 394.174 17.3177C394.174 18.5123 394.408 19.5577 394.878 20.4537C395.347 21.3497 395.987 22.0537 396.798 22.5657C397.608 23.0563 398.547 23.3017 399.614 23.3017ZM416.203 25.2537C414.752 25.2537 413.611 24.9017 412.779 24.1977C411.947 23.4937 411.531 22.2243 411.531 20.3897V11.6537H408.779V9.38166H411.531L411.883 5.57366H414.219V9.38166H418.891V11.6537H414.219V20.3897C414.219 21.3923 414.421 22.075 414.827 22.4377C415.232 22.779 415.947 22.9497 416.971 22.9497H418.635V25.2537H416.203ZM429.014 25.2537V2.85366H435.894C439.841 2.85366 442.742 3.85633 444.598 5.86166C446.476 7.86699 447.414 10.619 447.414 14.1177C447.414 17.5523 446.476 20.2723 444.598 22.2777C442.742 24.2617 439.841 25.2537 435.894 25.2537H429.014ZM431.702 23.0137H435.83C438.006 23.0137 439.734 22.6617 441.014 21.9577C442.316 21.2323 443.244 20.2083 443.798 18.8857C444.353 17.5417 444.63 15.9523 444.63 14.1177C444.63 12.2403 444.353 10.6297 443.798 9.28566C443.244 7.94166 442.316 6.90699 441.014 6.18166C439.734 5.45633 438.006 5.09366 435.83 5.09366H431.702V23.0137ZM457.311 25.6377C455.797 25.6377 454.453 25.2963 453.279 24.6137C452.106 23.9097 451.178 22.939 450.495 21.7017C449.834 20.4643 449.503 19.003 449.503 17.3177C449.503 15.6537 449.834 14.203 450.495 12.9657C451.157 11.707 452.074 10.7363 453.247 10.0537C454.442 9.34966 455.818 8.99766 457.375 8.99766C458.911 8.99766 460.234 9.34966 461.343 10.0537C462.474 10.7363 463.338 11.643 463.935 12.7737C464.533 13.9043 464.831 15.1203 464.831 16.4217C464.831 16.6563 464.821 16.891 464.799 17.1257C464.799 17.3603 464.799 17.627 464.799 17.9257H452.159C452.223 19.1417 452.501 20.155 452.991 20.9657C453.503 21.755 454.133 22.3523 454.879 22.7577C455.647 23.163 456.458 23.3657 457.311 23.3657C458.421 23.3657 459.349 23.1097 460.095 22.5977C460.842 22.0857 461.386 21.3923 461.727 20.5177H464.383C463.957 21.9897 463.135 23.2163 461.919 24.1977C460.725 25.1577 459.189 25.6377 457.311 25.6377ZM457.311 11.2697C456.031 11.2697 454.89 11.6643 453.887 12.4537C452.906 13.2217 452.341 14.3523 452.191 15.8457H462.175C462.111 14.4163 461.621 13.2963 460.703 12.4857C459.786 11.675 458.655 11.2697 457.311 11.2697ZM471.385 25.2537L465.369 9.38166H468.185L472.953 22.6617L477.753 9.38166H480.505L474.489 25.2537H471.385ZM488.86 25.6377C487.346 25.6377 486.002 25.2963 484.828 24.6137C483.655 23.9097 482.727 22.939 482.044 21.7017C481.383 20.4643 481.052 19.003 481.052 17.3177C481.052 15.6537 481.383 14.203 482.044 12.9657C482.706 11.707 483.623 10.7363 484.796 10.0537C485.991 9.34966 487.367 8.99766 488.924 8.99766C490.46 8.99766 491.783 9.34966 492.892 10.0537C494.023 10.7363 494.887 11.643 495.484 12.7737C496.082 13.9043 496.38 15.1203 496.38 16.4217C496.38 16.6563 496.37 16.891 496.348 17.1257C496.348 17.3603 496.348 17.627 496.348 17.9257H483.708C483.772 19.1417 484.05 20.155 484.54 20.9657C485.052 21.755 485.682 22.3523 486.428 22.7577C487.196 23.163 488.007 23.3657 488.86 23.3657C489.97 23.3657 490.898 23.1097 491.644 22.5977C492.391 22.0857 492.935 21.3923 493.276 20.5177H495.932C495.506 21.9897 494.684 23.2163 493.468 24.1977C492.274 25.1577 490.738 25.6377 488.86 25.6377ZM488.86 11.2697C487.58 11.2697 486.439 11.6643 485.436 12.4537C484.455 13.2217 483.89 14.3523 483.74 15.8457H493.724C493.66 14.4163 493.17 13.2963 492.252 12.4857C491.335 11.675 490.204 11.2697 488.86 11.2697ZM498.983 25.2537V2.21366H501.671V25.2537H498.983ZM512.349 25.6377C510.855 25.6377 509.511 25.2963 508.317 24.6137C507.122 23.931 506.173 22.971 505.469 21.7337C504.786 20.475 504.445 19.003 504.445 17.3177C504.445 15.6323 504.797 14.171 505.501 12.9337C506.205 11.675 507.154 10.7043 508.349 10.0217C509.565 9.33899 510.919 8.99766 512.413 8.99766C513.906 8.99766 515.25 9.33899 516.445 10.0217C517.639 10.7043 518.578 11.675 519.261 12.9337C519.965 14.171 520.317 15.6323 520.317 17.3177C520.317 19.003 519.965 20.475 519.261 21.7337C518.557 22.971 517.597 23.931 516.381 24.6137C515.186 25.2963 513.842 25.6377 512.349 25.6377ZM512.349 23.3337C513.266 23.3337 514.119 23.1097 514.909 22.6617C515.698 22.2137 516.338 21.5417 516.829 20.6457C517.319 19.7497 517.565 18.6403 517.565 17.3177C517.565 15.995 517.319 14.8857 516.829 13.9897C516.359 13.0937 515.73 12.4217 514.941 11.9737C514.151 11.5257 513.309 11.3017 512.413 11.3017C511.495 11.3017 510.642 11.5257 509.853 11.9737C509.063 12.4217 508.423 13.0937 507.933 13.9897C507.442 14.8857 507.197 15.995 507.197 17.3177C507.197 18.6403 507.442 19.7497 507.933 20.6457C508.423 21.5417 509.053 22.2137 509.821 22.6617C510.61 23.1097 511.453 23.3337 512.349 23.3337ZM523.094 32.2937V9.38166H525.526L525.782 12.0057C526.294 11.2377 527.02 10.5443 527.958 9.92566C528.918 9.30699 530.134 8.99766 531.606 8.99766C533.185 8.99766 534.561 9.36033 535.734 10.0857C536.908 10.811 537.814 11.803 538.454 13.0617C539.116 14.3203 539.446 15.7497 539.446 17.3497C539.446 18.9497 539.116 20.379 538.454 21.6377C537.814 22.875 536.897 23.8563 535.702 24.5817C534.529 25.2857 533.153 25.6377 531.574 25.6377C530.273 25.6377 529.11 25.371 528.086 24.8377C527.084 24.3043 526.316 23.5577 525.782 22.5977V32.2937H523.094ZM531.286 23.3017C532.353 23.3017 533.292 23.0563 534.102 22.5657C534.913 22.0537 535.553 21.3497 536.022 20.4537C536.492 19.5577 536.726 18.5123 536.726 17.3177C536.726 16.123 536.492 15.0777 536.022 14.1817C535.553 13.2857 534.913 12.5923 534.102 12.1017C533.292 11.5897 532.353 11.3337 531.286 11.3337C530.22 11.3337 529.281 11.5897 528.47 12.1017C527.66 12.5923 527.02 13.2857 526.55 14.1817C526.081 15.0777 525.846 16.123 525.846 17.3177C525.846 18.5123 526.081 19.5577 526.55 20.4537C527.02 21.3497 527.66 22.0537 528.47 22.5657C529.281 23.0563 530.22 23.3017 531.286 23.3017ZM549.364 25.6377C547.849 25.6377 546.505 25.2963 545.332 24.6137C544.159 23.9097 543.231 22.939 542.548 21.7017C541.887 20.4643 541.556 19.003 541.556 17.3177C541.556 15.6537 541.887 14.203 542.548 12.9657C543.209 11.707 544.127 10.7363 545.3 10.0537C546.495 9.34966 547.871 8.99766 549.428 8.99766C550.964 8.99766 552.287 9.34966 553.396 10.0537C554.527 10.7363 555.391 11.643 555.988 12.7737C556.585 13.9043 556.884 15.1203 556.884 16.4217C556.884 16.6563 556.873 16.891 556.852 17.1257C556.852 17.3603 556.852 17.627 556.852 17.9257H544.212C544.276 19.1417 544.553 20.155 545.044 20.9657C545.556 21.755 546.185 22.3523 546.932 22.7577C547.7 23.163 548.511 23.3657 549.364 23.3657C550.473 23.3657 551.401 23.1097 552.148 22.5977C552.895 22.0857 553.439 21.3923 553.78 20.5177H556.436C556.009 21.9897 555.188 23.2163 553.972 24.1977C552.777 25.1577 551.241 25.6377 549.364 25.6377ZM549.364 11.2697C548.084 11.2697 546.943 11.6643 545.94 12.4537C544.959 13.2217 544.393 14.3523 544.244 15.8457H554.228C554.164 14.4163 553.673 13.2963 552.756 12.4857C551.839 11.675 550.708 11.2697 549.364 11.2697ZM559.487 25.2537V9.38166H561.919L562.143 12.4217C562.633 11.3763 563.38 10.5443 564.383 9.92566C565.385 9.30699 566.623 8.99766 568.095 8.99766V11.8137H567.359C566.42 11.8137 565.556 11.9843 564.767 12.3257C563.977 12.6457 563.348 13.2003 562.879 13.9897C562.409 14.779 562.175 15.867 562.175 17.2537V25.2537H559.487ZM569.798 25.4137C569.265 25.4137 568.817 25.243 568.454 24.9017C568.113 24.539 567.942 24.1017 567.942 23.5897C567.942 23.0777 568.113 22.651 568.454 22.3097C568.817 21.947 569.265 21.7657 569.798 21.7657C570.31 21.7657 570.737 21.947 571.078 22.3097C571.441 22.651 571.622 23.0777 571.622 23.5897C571.622 24.1017 571.441 24.539 571.078 24.9017C570.737 25.243 570.31 25.4137 569.798 25.4137Z" fill="#606060"/>
</svg>
